<svg width="83" height="41" viewBox="0 0 83 41" fill="none" xmlns="http://www.w3.org/2000/svg">
<path d="M0 12.25V10.5H8.75V8.75H1.75V7H0V5.25H1.75V3.5H10.5V5.25H3.5V7H10.5V8.75H12.25V10.5H10.5V12.25H0ZM15.75 12.25V10.5H14V5.25H15.75V3.5H24.5V5.25H26.25V10.5H24.5V12.25H15.75ZM17.5 10.5H22.75V5.25H17.5V10.5ZM29.75 12.25V10.5H28V5.25H29.75V3.5H40.25V5.25H31.5V10.5H40.25V12.25H29.75ZM47.25 1.75V0H50.75V1.75H47.25ZM43.75 12.25V10.5H47.25V5.25H45.5V3.5H50.75V10.5H54.25V12.25H43.75ZM57.75 12.25V10.5H56V8.75H57.75V7H64.75V5.25H57.75V3.5H66.5V5.25H68.25V12.25H57.75ZM59.5 10.5H64.75V8.75H59.5V10.5ZM71.75 12.25V10.5H75.25V1.75H73.5V0H78.75V10.5H82.25V12.25H71.75ZM1.75 26.25V24.5H0V19.25H1.75V17.5H12.25V19.25H3.5V24.5H12.25V26.25H1.75ZM19.25 19.25H21V21H19.25V26.25H15.75V17.5H19.25V19.25ZM26.25 17.5V19.25H21V17.5H26.25ZM29.75 28V26.25H36.75V24.5H29.75V22.75H28V17.5H31.5V22.75H36.75V17.5H40.25V26.25H38.5V28H29.75ZM42 28V17.5H52.5V19.25H54.25V22.75H52.5V24.5H45.5V28H42ZM45.5 22.75H50.75V19.25H45.5V22.75ZM61.25 26.25V19.25H57.75V17.5H61.25V14H64.75V17.5H68.25V19.25H64.75V26.25H61.25ZM71.75 26.25V24.5H70V19.25H71.75V17.5H80.5V19.25H82.25V24.5H80.5V26.25H71.75ZM73.5 24.5H78.75V19.25H73.5V24.5ZM3.5 40.25V36.75H7V40.25H3.5ZM15.75 40.25V38.5H14V36.75H15.75V35H22.75V33.25H15.75V31.5H24.5V33.25H26.25V40.25H15.75ZM17.5 38.5H22.75V36.75H17.5V38.5ZM33.25 33.25H35V35H33.25V40.25H29.75V31.5H33.25V33.25ZM40.25 31.5V33.25H35V31.5H40.25ZM47.25 40.25V33.25H43.75V31.5H47.25V28H50.75V31.5H54.25V33.25H50.75V40.25H47.25Z" fill="#6D3DAA"/>
</svg>
