<svg width="598" height="62" viewBox="0 0 598 62" fill="none" xmlns="http://www.w3.org/2000/svg">
<g filter="url(#filter0_d_20_39)">
<path d="M14.5 32.5V28H37V23.5H19V19H14.5V14.5H19V10H41.5V14.5H23.5V19H41.5V23.5H46V28H41.5V32.5H14.5ZM55 32.5V28H50.5V14.5H55V10H77.5V14.5H82V28H77.5V32.5H55ZM59.5 28H73V14.5H59.5V28ZM91 32.5V28H86.5V14.5H91V10H118V14.5H95.5V28H118V32.5H91ZM136 5.5V1H145V5.5H136ZM127 32.5V28H136V14.5H131.5V10H145V28H154V32.5H127ZM163 32.5V28H158.5V23.5H163V19H181V14.5H163V10H185.5V14.5H190V32.5H163ZM167.5 28H181V23.5H167.5V28ZM199 32.5V28H208V5.5H203.5V1H217V28H226V32.5H199ZM235 32.5V28H230.5V14.5H235V10H262V14.5H239.5V28H262V32.5H235ZM280 14.5H284.5V19H280V32.5H271V10H280V14.5ZM298 10V14.5H284.5V10H298ZM307 37V32.5H325V28H307V23.5H302.5V10H311.5V23.5H325V10H334V32.5H329.5V37H307ZM338.5 37V10H365.5V14.5H370V23.5H365.5V28H347.5V37H338.5ZM347.5 23.5H361V14.5H347.5V23.5ZM388 32.5V14.5H379V10H388V1H397V10H406V14.5H397V32.5H388ZM415 32.5V28H410.5V14.5H415V10H437.5V14.5H442V28H437.5V32.5H415ZM419.5 28H433V14.5H419.5V28ZM455.5 32.5V23.5H464.5V32.5H455.5ZM487 32.5V28H482.5V23.5H487V19H505V14.5H487V10H509.5V14.5H514V32.5H487ZM491.5 28H505V23.5H491.5V28ZM532 14.5H536.5V19H532V32.5H523V10H532V14.5ZM550 10V14.5H536.5V10H550ZM568 32.5V14.5H559V10H568V1H577V10H586V14.5H577V32.5H568Z" fill="white"/>
</g>
<defs>
<filter id="filter0_d_20_39" x="0.5" y="0" width="597.5" height="62" filterUnits="userSpaceOnUse" color-interpolation-filters="sRGB">
<feFlood flood-opacity="0" result="BackgroundImageFix"/>
<feColorMatrix in="SourceAlpha" type="matrix" values="0 0 0 0 0 0 0 0 0 0 0 0 0 0 0 0 0 0 127 0" result="hardAlpha"/>
<feOffset dx="-1" dy="12"/>
<feGaussianBlur stdDeviation="6.5"/>
<feComposite in2="hardAlpha" operator="out"/>
<feColorMatrix type="matrix" values="0 0 0 0 0 0 0 0 0 0 0 0 0 0 0 0 0 0 0.5 0"/>
<feBlend mode="normal" in2="BackgroundImageFix" result="effect1_dropShadow_20_39"/>
<feBlend mode="normal" in="SourceGraphic" in2="effect1_dropShadow_20_39" result="shape"/>
</filter>
</defs>
</svg>
