<svg width="873" height="639" viewBox="0 0 873 639" fill="none" xmlns="http://www.w3.org/2000/svg">
<path d="M-1.85693 628.298L-81.7835 516.403L46.1405 499.438L-1.85693 628.298Z" fill="#C54AE3" fill-opacity="0.4"/>
<path d="M369.62 194.943L237.864 120.08L361.641 43.6133L369.62 194.943Z" fill="#C54AE3" fill-opacity="0.4"/>
<rect x="617.839" y="43" width="103" height="117" transform="rotate(48.6565 617.839 43)" fill="#C54AE3" fill-opacity="0.4"/>
<rect x="665.307" y="357" width="94.4443" height="120.286" transform="rotate(48.6565 665.307 357)" fill="#C54AE3" fill-opacity="0.4"/>
<path d="M234.046 319.625L142.636 436.146L87.037 301.696L234.046 319.625Z" fill="#C54AE3" fill-opacity="0.4"/>
<path d="M99.7294 127.108L53.329 267.749L-44.6296 160.175L99.7294 127.108Z" fill="#C54AE3" fill-opacity="0.4"/>
<path d="M884.046 209.625L792.636 326.146L737.037 191.696L884.046 209.625Z" fill="#C54AE3" fill-opacity="0.4"/>
<path d="M917.046 469.625L825.636 586.146L770.037 451.696L917.046 469.625Z" fill="#C54AE3" fill-opacity="0.4"/>
</svg>
