<svg width="867" height="410" viewBox="0 0 867 410" fill="none" xmlns="http://www.w3.org/2000/svg">
<path d="M756.701 299L759.907 305.033H753.496L756.701 299Z" fill="#7910FF" fill-opacity="0.4"/>
<path d="M851.455 299L854.66 305.033H848.249L851.455 299Z" fill="#7910FF" fill-opacity="0.4"/>
<path d="M863.299 299L866.504 305.033H860.093L863.299 299Z" fill="#7910FF" fill-opacity="0.4"/>
<path d="M839.61 299L842.816 305.033H836.405L839.61 299Z" fill="#7910FF" fill-opacity="0.4"/>
<path d="M827.766 299L830.972 305.033H824.561L827.766 299Z" fill="#7910FF" fill-opacity="0.4"/>
<path d="M815.922 299L819.127 305.033H812.717L815.922 299Z" fill="#7910FF" fill-opacity="0.4"/>
<path d="M804.078 299L807.283 305.033H800.872L804.078 299Z" fill="#7910FF" fill-opacity="0.4"/>
<path d="M792.234 299L795.439 305.033H789.028L792.234 299Z" fill="#7910FF" fill-opacity="0.4"/>
<path d="M780.39 299L783.595 305.033H777.184L780.39 299Z" fill="#7910FF" fill-opacity="0.4"/>
<path d="M768.545 299L771.751 305.033H765.34L768.545 299Z" fill="#7910FF" fill-opacity="0.4"/>
<path d="M756.701 350.478L759.907 356.511H753.496L756.701 350.478Z" fill="#7910FF" fill-opacity="0.4"/>
<path d="M851.455 350.478L854.66 356.511H848.249L851.455 350.478Z" fill="#7910FF" fill-opacity="0.4"/>
<path d="M863.299 350.478L866.504 356.511H860.093L863.299 350.478Z" fill="#7910FF" fill-opacity="0.4"/>
<path d="M839.61 350.478L842.816 356.511H836.405L839.61 350.478Z" fill="#7910FF" fill-opacity="0.4"/>
<path d="M827.766 350.478L830.972 356.511H824.561L827.766 350.478Z" fill="#7910FF" fill-opacity="0.4"/>
<path d="M815.922 350.478L819.127 356.511H812.717L815.922 350.478Z" fill="#7910FF" fill-opacity="0.4"/>
<path d="M804.078 350.478L807.283 356.511H800.872L804.078 350.478Z" fill="#7910FF" fill-opacity="0.4"/>
<path d="M792.234 350.478L795.439 356.511H789.028L792.234 350.478Z" fill="#7910FF" fill-opacity="0.4"/>
<path d="M780.39 350.478L783.595 356.511H777.184L780.39 350.478Z" fill="#7910FF" fill-opacity="0.4"/>
<path d="M768.545 350.478L771.751 356.511H765.34L768.545 350.478Z" fill="#7910FF" fill-opacity="0.4"/>
<path d="M756.701 337.609L759.907 343.641H753.496L756.701 337.609Z" fill="#7910FF" fill-opacity="0.4"/>
<path d="M851.455 337.609L854.66 343.641H848.249L851.455 337.609Z" fill="#7910FF" fill-opacity="0.4"/>
<path d="M863.299 337.609L866.504 343.641H860.093L863.299 337.609Z" fill="#7910FF" fill-opacity="0.4"/>
<path d="M839.61 337.609L842.816 343.641H836.405L839.61 337.609Z" fill="#7910FF" fill-opacity="0.4"/>
<path d="M827.766 337.609L830.972 343.641H824.561L827.766 337.609Z" fill="#7910FF" fill-opacity="0.4"/>
<path d="M815.922 337.609L819.127 343.641H812.717L815.922 337.609Z" fill="#7910FF" fill-opacity="0.4"/>
<path d="M804.078 337.609L807.283 343.641H800.872L804.078 337.609Z" fill="#7910FF" fill-opacity="0.4"/>
<path d="M792.234 337.609L795.439 343.641H789.028L792.234 337.609Z" fill="#7910FF" fill-opacity="0.4"/>
<path d="M780.39 337.609L783.595 343.641H777.184L780.39 337.609Z" fill="#7910FF" fill-opacity="0.4"/>
<path d="M768.545 337.609L771.751 343.641H765.34L768.545 337.609Z" fill="#7910FF" fill-opacity="0.4"/>
<path d="M756.701 324.739L759.907 330.772H753.496L756.701 324.739Z" fill="#7910FF" fill-opacity="0.4"/>
<path d="M851.455 324.739L854.66 330.772H848.249L851.455 324.739Z" fill="#7910FF" fill-opacity="0.4"/>
<path d="M863.299 324.739L866.504 330.772H860.093L863.299 324.739Z" fill="#7910FF" fill-opacity="0.4"/>
<path d="M839.61 324.739L842.816 330.772H836.405L839.61 324.739Z" fill="#7910FF" fill-opacity="0.4"/>
<path d="M827.766 324.739L830.972 330.772H824.561L827.766 324.739Z" fill="#7910FF" fill-opacity="0.4"/>
<path d="M815.922 324.739L819.127 330.772H812.717L815.922 324.739Z" fill="#7910FF" fill-opacity="0.4"/>
<path d="M804.078 324.739L807.283 330.772H800.872L804.078 324.739Z" fill="#7910FF" fill-opacity="0.4"/>
<path d="M792.234 324.739L795.439 330.772H789.028L792.234 324.739Z" fill="#7910FF" fill-opacity="0.4"/>
<path d="M780.39 324.739L783.595 330.772H777.184L780.39 324.739Z" fill="#7910FF" fill-opacity="0.4"/>
<path d="M768.545 324.739L771.751 330.772H765.34L768.545 324.739Z" fill="#7910FF" fill-opacity="0.4"/>
<path d="M756.701 401.957L759.907 407.989H753.496L756.701 401.957Z" fill="#7910FF" fill-opacity="0.4"/>
<path d="M851.455 401.957L854.66 407.989H848.249L851.455 401.957Z" fill="#7910FF" fill-opacity="0.4"/>
<path d="M863.299 401.957L866.504 407.989H860.093L863.299 401.957Z" fill="#7910FF" fill-opacity="0.4"/>
<path d="M839.61 401.957L842.816 407.989H836.405L839.61 401.957Z" fill="#7910FF" fill-opacity="0.4"/>
<path d="M827.766 401.957L830.972 407.989H824.561L827.766 401.957Z" fill="#7910FF" fill-opacity="0.4"/>
<path d="M815.922 401.957L819.127 407.989H812.717L815.922 401.957Z" fill="#7910FF" fill-opacity="0.4"/>
<path d="M804.078 401.957L807.283 407.989H800.872L804.078 401.957Z" fill="#7910FF" fill-opacity="0.4"/>
<path d="M792.234 401.957L795.439 407.989H789.028L792.234 401.957Z" fill="#7910FF" fill-opacity="0.4"/>
<path d="M780.39 401.957L783.595 407.989H777.184L780.39 401.957Z" fill="#7910FF" fill-opacity="0.4"/>
<path d="M768.545 401.957L771.751 407.989H765.34L768.545 401.957Z" fill="#7910FF" fill-opacity="0.4"/>
<path d="M756.701 389.087L759.907 395.12H753.496L756.701 389.087Z" fill="#7910FF" fill-opacity="0.4"/>
<path d="M851.455 389.087L854.66 395.12H848.249L851.455 389.087Z" fill="#7910FF" fill-opacity="0.4"/>
<path d="M863.299 389.087L866.504 395.12H860.093L863.299 389.087Z" fill="#7910FF" fill-opacity="0.4"/>
<path d="M839.61 389.087L842.816 395.12H836.405L839.61 389.087Z" fill="#7910FF" fill-opacity="0.4"/>
<path d="M827.766 389.087L830.972 395.12H824.561L827.766 389.087Z" fill="#7910FF" fill-opacity="0.4"/>
<path d="M815.922 389.087L819.127 395.12H812.717L815.922 389.087Z" fill="#7910FF" fill-opacity="0.4"/>
<path d="M804.078 389.087L807.283 395.12H800.872L804.078 389.087Z" fill="#7910FF" fill-opacity="0.4"/>
<path d="M792.234 389.087L795.439 395.12H789.028L792.234 389.087Z" fill="#7910FF" fill-opacity="0.4"/>
<path d="M780.39 389.087L783.595 395.12H777.184L780.39 389.087Z" fill="#7910FF" fill-opacity="0.4"/>
<path d="M768.545 389.087L771.751 395.12H765.34L768.545 389.087Z" fill="#7910FF" fill-opacity="0.4"/>
<path d="M756.701 376.217L759.907 382.25H753.496L756.701 376.217Z" fill="#7910FF" fill-opacity="0.4"/>
<path d="M851.455 376.217L854.66 382.25H848.249L851.455 376.217Z" fill="#7910FF" fill-opacity="0.4"/>
<path d="M863.299 376.217L866.504 382.25H860.093L863.299 376.217Z" fill="#7910FF" fill-opacity="0.4"/>
<path d="M839.61 376.217L842.816 382.25H836.405L839.61 376.217Z" fill="#7910FF" fill-opacity="0.4"/>
<path d="M827.766 376.217L830.972 382.25H824.561L827.766 376.217Z" fill="#7910FF" fill-opacity="0.4"/>
<path d="M815.922 376.217L819.127 382.25H812.717L815.922 376.217Z" fill="#7910FF" fill-opacity="0.4"/>
<path d="M804.078 376.217L807.283 382.25H800.872L804.078 376.217Z" fill="#7910FF" fill-opacity="0.4"/>
<path d="M792.234 376.217L795.439 382.25H789.028L792.234 376.217Z" fill="#7910FF" fill-opacity="0.4"/>
<path d="M780.39 376.217L783.595 382.25H777.184L780.39 376.217Z" fill="#7910FF" fill-opacity="0.4"/>
<path d="M768.545 376.217L771.751 382.25H765.34L768.545 376.217Z" fill="#7910FF" fill-opacity="0.4"/>
<path d="M756.701 363.348L759.907 369.38H753.496L756.701 363.348Z" fill="#7910FF" fill-opacity="0.4"/>
<path d="M851.455 363.348L854.66 369.38H848.249L851.455 363.348Z" fill="#7910FF" fill-opacity="0.4"/>
<path d="M863.299 363.348L866.504 369.38H860.093L863.299 363.348Z" fill="#7910FF" fill-opacity="0.4"/>
<path d="M839.61 363.348L842.816 369.38H836.405L839.61 363.348Z" fill="#7910FF" fill-opacity="0.4"/>
<path d="M827.766 363.348L830.972 369.38H824.561L827.766 363.348Z" fill="#7910FF" fill-opacity="0.4"/>
<path d="M815.922 363.348L819.127 369.38H812.717L815.922 363.348Z" fill="#7910FF" fill-opacity="0.4"/>
<path d="M804.078 363.348L807.283 369.38H800.872L804.078 363.348Z" fill="#7910FF" fill-opacity="0.4"/>
<path d="M792.234 363.348L795.439 369.38H789.028L792.234 363.348Z" fill="#7910FF" fill-opacity="0.4"/>
<path d="M780.39 363.348L783.595 369.38H777.184L780.39 363.348Z" fill="#7910FF" fill-opacity="0.4"/>
<path d="M768.545 363.348L771.751 369.38H765.34L768.545 363.348Z" fill="#7910FF" fill-opacity="0.4"/>
<path d="M756.701 311.87L759.907 317.902H753.496L756.701 311.87Z" fill="#7910FF" fill-opacity="0.4"/>
<path d="M851.455 311.87L854.66 317.902H848.249L851.455 311.87Z" fill="#7910FF" fill-opacity="0.4"/>
<path d="M863.299 311.87L866.504 317.902H860.093L863.299 311.87Z" fill="#7910FF" fill-opacity="0.4"/>
<path d="M839.61 311.87L842.816 317.902H836.405L839.61 311.87Z" fill="#7910FF" fill-opacity="0.4"/>
<path d="M827.766 311.87L830.972 317.902H824.561L827.766 311.87Z" fill="#7910FF" fill-opacity="0.4"/>
<path d="M815.922 311.87L819.127 317.902H812.717L815.922 311.87Z" fill="#7910FF" fill-opacity="0.4"/>
<path d="M804.078 311.87L807.283 317.902H800.872L804.078 311.87Z" fill="#7910FF" fill-opacity="0.4"/>
<path d="M792.234 311.87L795.439 317.902H789.028L792.234 311.87Z" fill="#7910FF" fill-opacity="0.4"/>
<path d="M780.39 311.87L783.595 317.902H777.184L780.39 311.87Z" fill="#7910FF" fill-opacity="0.4"/>
<path d="M768.545 311.87L771.751 317.902H765.34L768.545 311.87Z" fill="#7910FF" fill-opacity="0.4"/>
<path d="M756.701 0L759.907 6.03261H753.496L756.701 0Z" fill="#7910FF" fill-opacity="0.4"/>
<path d="M851.455 0L854.66 6.03261H848.249L851.455 0Z" fill="#7910FF" fill-opacity="0.4"/>
<path d="M863.299 0L866.504 6.03261H860.093L863.299 0Z" fill="#7910FF" fill-opacity="0.4"/>
<path d="M839.61 0L842.816 6.03261H836.405L839.61 0Z" fill="#7910FF" fill-opacity="0.4"/>
<path d="M827.766 0L830.972 6.03261H824.561L827.766 0Z" fill="#7910FF" fill-opacity="0.4"/>
<path d="M815.922 0L819.127 6.03261H812.717L815.922 0Z" fill="#7910FF" fill-opacity="0.4"/>
<path d="M804.078 0L807.283 6.03261H800.872L804.078 0Z" fill="#7910FF" fill-opacity="0.4"/>
<path d="M792.234 0L795.439 6.03261H789.028L792.234 0Z" fill="#7910FF" fill-opacity="0.4"/>
<path d="M780.39 0L783.595 6.03261H777.184L780.39 0Z" fill="#7910FF" fill-opacity="0.4"/>
<path d="M768.545 0L771.751 6.03261H765.34L768.545 0Z" fill="#7910FF" fill-opacity="0.4"/>
<path d="M756.701 51.4783L759.907 57.5109H753.496L756.701 51.4783Z" fill="#7910FF" fill-opacity="0.4"/>
<path d="M851.455 51.4782L854.66 57.5108H848.249L851.455 51.4782Z" fill="#7910FF" fill-opacity="0.4"/>
<path d="M863.299 51.4782L866.504 57.5108H860.093L863.299 51.4782Z" fill="#7910FF" fill-opacity="0.4"/>
<path d="M839.61 51.4782L842.816 57.5108H836.405L839.61 51.4782Z" fill="#7910FF" fill-opacity="0.4"/>
<path d="M827.766 51.4782L830.972 57.5108H824.561L827.766 51.4782Z" fill="#7910FF" fill-opacity="0.4"/>
<path d="M815.922 51.4782L819.127 57.5108H812.717L815.922 51.4782Z" fill="#7910FF" fill-opacity="0.4"/>
<path d="M804.078 51.4782L807.283 57.5108H800.872L804.078 51.4782Z" fill="#7910FF" fill-opacity="0.4"/>
<path d="M792.234 51.4782L795.439 57.5108H789.028L792.234 51.4782Z" fill="#7910FF" fill-opacity="0.4"/>
<path d="M780.39 51.4782L783.595 57.5108H777.184L780.39 51.4782Z" fill="#7910FF" fill-opacity="0.4"/>
<path d="M768.545 51.4782L771.751 57.5108H765.34L768.545 51.4782Z" fill="#7910FF" fill-opacity="0.4"/>
<path d="M756.701 38.6087L759.907 44.6413H753.496L756.701 38.6087Z" fill="#7910FF" fill-opacity="0.4"/>
<path d="M851.455 38.6087L854.66 44.6413H848.249L851.455 38.6087Z" fill="#7910FF" fill-opacity="0.4"/>
<path d="M863.299 38.6087L866.504 44.6413H860.093L863.299 38.6087Z" fill="#7910FF" fill-opacity="0.4"/>
<path d="M839.61 38.6087L842.816 44.6413H836.405L839.61 38.6087Z" fill="#7910FF" fill-opacity="0.4"/>
<path d="M827.766 38.6087L830.972 44.6413H824.561L827.766 38.6087Z" fill="#7910FF" fill-opacity="0.4"/>
<path d="M815.922 38.6087L819.127 44.6413H812.717L815.922 38.6087Z" fill="#7910FF" fill-opacity="0.4"/>
<path d="M804.078 38.6087L807.283 44.6413H800.872L804.078 38.6087Z" fill="#7910FF" fill-opacity="0.4"/>
<path d="M792.234 38.6087L795.439 44.6413H789.028L792.234 38.6087Z" fill="#7910FF" fill-opacity="0.4"/>
<path d="M780.39 38.6087L783.595 44.6413H777.184L780.39 38.6087Z" fill="#7910FF" fill-opacity="0.4"/>
<path d="M768.545 38.6087L771.751 44.6413H765.34L768.545 38.6087Z" fill="#7910FF" fill-opacity="0.4"/>
<path d="M756.701 25.7391L759.907 31.7717H753.496L756.701 25.7391Z" fill="#7910FF" fill-opacity="0.4"/>
<path d="M851.455 25.7391L854.66 31.7717H848.249L851.455 25.7391Z" fill="#7910FF" fill-opacity="0.4"/>
<path d="M863.299 25.7391L866.504 31.7717H860.093L863.299 25.7391Z" fill="#7910FF" fill-opacity="0.4"/>
<path d="M839.61 25.7391L842.816 31.7717H836.405L839.61 25.7391Z" fill="#7910FF" fill-opacity="0.4"/>
<path d="M827.766 25.7391L830.972 31.7717H824.561L827.766 25.7391Z" fill="#7910FF" fill-opacity="0.4"/>
<path d="M815.922 25.7391L819.127 31.7717H812.717L815.922 25.7391Z" fill="#7910FF" fill-opacity="0.4"/>
<path d="M804.078 25.7391L807.283 31.7717H800.872L804.078 25.7391Z" fill="#7910FF" fill-opacity="0.4"/>
<path d="M792.234 25.7391L795.439 31.7717H789.028L792.234 25.7391Z" fill="#7910FF" fill-opacity="0.4"/>
<path d="M780.39 25.7391L783.595 31.7717H777.184L780.39 25.7391Z" fill="#7910FF" fill-opacity="0.4"/>
<path d="M768.545 25.7391L771.751 31.7717H765.34L768.545 25.7391Z" fill="#7910FF" fill-opacity="0.4"/>
<path d="M756.701 102.957L759.907 108.989H753.496L756.701 102.957Z" fill="#7910FF" fill-opacity="0.4"/>
<path d="M851.455 102.957L854.66 108.989H848.249L851.455 102.957Z" fill="#7910FF" fill-opacity="0.4"/>
<path d="M863.299 102.957L866.504 108.989H860.093L863.299 102.957Z" fill="#7910FF" fill-opacity="0.4"/>
<path d="M839.61 102.957L842.816 108.989H836.405L839.61 102.957Z" fill="#7910FF" fill-opacity="0.4"/>
<path d="M827.766 102.957L830.972 108.989H824.561L827.766 102.957Z" fill="#7910FF" fill-opacity="0.4"/>
<path d="M815.922 102.957L819.127 108.989H812.717L815.922 102.957Z" fill="#7910FF" fill-opacity="0.4"/>
<path d="M804.078 102.957L807.283 108.989H800.872L804.078 102.957Z" fill="#7910FF" fill-opacity="0.4"/>
<path d="M792.234 102.957L795.439 108.989H789.028L792.234 102.957Z" fill="#7910FF" fill-opacity="0.4"/>
<path d="M780.39 102.957L783.595 108.989H777.184L780.39 102.957Z" fill="#7910FF" fill-opacity="0.4"/>
<path d="M768.545 102.957L771.751 108.989H765.34L768.545 102.957Z" fill="#7910FF" fill-opacity="0.4"/>
<path d="M756.701 90.087L759.907 96.1196H753.496L756.701 90.087Z" fill="#7910FF" fill-opacity="0.4"/>
<path d="M851.455 90.0869L854.66 96.1196H848.249L851.455 90.0869Z" fill="#7910FF" fill-opacity="0.4"/>
<path d="M863.299 90.0869L866.504 96.1196H860.093L863.299 90.0869Z" fill="#7910FF" fill-opacity="0.4"/>
<path d="M839.61 90.0869L842.816 96.1196H836.405L839.61 90.0869Z" fill="#7910FF" fill-opacity="0.4"/>
<path d="M827.766 90.0869L830.972 96.1196H824.561L827.766 90.0869Z" fill="#7910FF" fill-opacity="0.4"/>
<path d="M815.922 90.0869L819.127 96.1196H812.717L815.922 90.0869Z" fill="#7910FF" fill-opacity="0.4"/>
<path d="M804.078 90.0869L807.283 96.1196H800.872L804.078 90.0869Z" fill="#7910FF" fill-opacity="0.4"/>
<path d="M792.234 90.0869L795.439 96.1196H789.028L792.234 90.0869Z" fill="#7910FF" fill-opacity="0.4"/>
<path d="M780.39 90.0869L783.595 96.1196H777.184L780.39 90.0869Z" fill="#7910FF" fill-opacity="0.4"/>
<path d="M768.545 90.0869L771.751 96.1196H765.34L768.545 90.0869Z" fill="#7910FF" fill-opacity="0.4"/>
<path d="M756.701 77.2174L759.907 83.25H753.496L756.701 77.2174Z" fill="#7910FF" fill-opacity="0.4"/>
<path d="M851.455 77.2174L854.66 83.25H848.249L851.455 77.2174Z" fill="#7910FF" fill-opacity="0.4"/>
<path d="M863.299 77.2174L866.504 83.25H860.093L863.299 77.2174Z" fill="#7910FF" fill-opacity="0.4"/>
<path d="M839.61 77.2174L842.816 83.25H836.405L839.61 77.2174Z" fill="#7910FF" fill-opacity="0.4"/>
<path d="M827.766 77.2174L830.972 83.25H824.561L827.766 77.2174Z" fill="#7910FF" fill-opacity="0.4"/>
<path d="M815.922 77.2174L819.127 83.25H812.717L815.922 77.2174Z" fill="#7910FF" fill-opacity="0.4"/>
<path d="M804.078 77.2174L807.283 83.25H800.872L804.078 77.2174Z" fill="#7910FF" fill-opacity="0.4"/>
<path d="M792.234 77.2174L795.439 83.25H789.028L792.234 77.2174Z" fill="#7910FF" fill-opacity="0.4"/>
<path d="M780.39 77.2174L783.595 83.25H777.184L780.39 77.2174Z" fill="#7910FF" fill-opacity="0.4"/>
<path d="M768.545 77.2174L771.751 83.25H765.34L768.545 77.2174Z" fill="#7910FF" fill-opacity="0.4"/>
<path d="M756.701 64.3478L759.907 70.3804H753.496L756.701 64.3478Z" fill="#7910FF" fill-opacity="0.4"/>
<path d="M851.455 64.3478L854.66 70.3804H848.249L851.455 64.3478Z" fill="#7910FF" fill-opacity="0.4"/>
<path d="M863.299 64.3478L866.504 70.3804H860.093L863.299 64.3478Z" fill="#7910FF" fill-opacity="0.4"/>
<path d="M839.61 64.3478L842.816 70.3804H836.405L839.61 64.3478Z" fill="#7910FF" fill-opacity="0.4"/>
<path d="M827.766 64.3478L830.972 70.3804H824.561L827.766 64.3478Z" fill="#7910FF" fill-opacity="0.4"/>
<path d="M815.922 64.3478L819.127 70.3804H812.717L815.922 64.3478Z" fill="#7910FF" fill-opacity="0.4"/>
<path d="M804.078 64.3478L807.283 70.3804H800.872L804.078 64.3478Z" fill="#7910FF" fill-opacity="0.4"/>
<path d="M792.234 64.3478L795.439 70.3804H789.028L792.234 64.3478Z" fill="#7910FF" fill-opacity="0.4"/>
<path d="M780.39 64.3478L783.595 70.3804H777.184L780.39 64.3478Z" fill="#7910FF" fill-opacity="0.4"/>
<path d="M768.545 64.3478L771.751 70.3804H765.34L768.545 64.3478Z" fill="#7910FF" fill-opacity="0.4"/>
<path d="M756.701 12.8696L759.907 18.9022H753.496L756.701 12.8696Z" fill="#7910FF" fill-opacity="0.4"/>
<path d="M851.455 12.8696L854.66 18.9022H848.249L851.455 12.8696Z" fill="#7910FF" fill-opacity="0.4"/>
<path d="M863.299 12.8696L866.504 18.9022H860.093L863.299 12.8696Z" fill="#7910FF" fill-opacity="0.4"/>
<path d="M839.61 12.8696L842.816 18.9022H836.405L839.61 12.8696Z" fill="#7910FF" fill-opacity="0.4"/>
<path d="M827.766 12.8696L830.972 18.9022H824.561L827.766 12.8696Z" fill="#7910FF" fill-opacity="0.4"/>
<path d="M815.922 12.8696L819.127 18.9022H812.717L815.922 12.8696Z" fill="#7910FF" fill-opacity="0.4"/>
<path d="M804.078 12.8696L807.283 18.9022H800.872L804.078 12.8696Z" fill="#7910FF" fill-opacity="0.4"/>
<path d="M792.234 12.8696L795.439 18.9022H789.028L792.234 12.8696Z" fill="#7910FF" fill-opacity="0.4"/>
<path d="M780.39 12.8696L783.595 18.9022H777.184L780.39 12.8696Z" fill="#7910FF" fill-opacity="0.4"/>
<path d="M768.545 12.8696L771.751 18.9022H765.34L768.545 12.8696Z" fill="#7910FF" fill-opacity="0.4"/>
<ellipse cx="136.472" cy="140.558" rx="2.47232" ry="2.55769" fill="#F2D0FA" fill-opacity="0.6"/>
<ellipse cx="265.528" cy="140.558" rx="2.47232" ry="2.55769" fill="#F2D0FA" fill-opacity="0.6"/>
<ellipse cx="251.188" cy="140.558" rx="2.47232" ry="2.55769" fill="#F2D0FA" fill-opacity="0.6"/>
<ellipse cx="236.849" cy="140.558" rx="2.47232" ry="2.55769" fill="#F2D0FA" fill-opacity="0.6"/>
<ellipse cx="222.509" cy="140.558" rx="2.47232" ry="2.55769" fill="#F2D0FA" fill-opacity="0.6"/>
<ellipse cx="208.17" cy="140.558" rx="2.47232" ry="2.55769" fill="#F2D0FA" fill-opacity="0.6"/>
<ellipse cx="193.83" cy="140.558" rx="2.47232" ry="2.55769" fill="#F2D0FA" fill-opacity="0.6"/>
<ellipse cx="179.491" cy="140.558" rx="2.47232" ry="2.55769" fill="#F2D0FA" fill-opacity="0.6"/>
<ellipse cx="165.151" cy="140.558" rx="2.47232" ry="2.55769" fill="#F2D0FA" fill-opacity="0.6"/>
<ellipse cx="150.812" cy="140.558" rx="2.47232" ry="2.55769" fill="#F2D0FA" fill-opacity="0.6"/>
<ellipse cx="136.472" cy="268.442" rx="2.47232" ry="2.55769" fill="#F2D0FA" fill-opacity="0.6"/>
<ellipse cx="265.528" cy="268.442" rx="2.47232" ry="2.55769" fill="#F2D0FA" fill-opacity="0.6"/>
<ellipse cx="251.188" cy="268.442" rx="2.47232" ry="2.55769" fill="#F2D0FA" fill-opacity="0.6"/>
<ellipse cx="236.849" cy="268.442" rx="2.47232" ry="2.55769" fill="#F2D0FA" fill-opacity="0.6"/>
<ellipse cx="222.509" cy="268.442" rx="2.47232" ry="2.55769" fill="#F2D0FA" fill-opacity="0.6"/>
<ellipse cx="208.17" cy="268.442" rx="2.47232" ry="2.55769" fill="#F2D0FA" fill-opacity="0.6"/>
<ellipse cx="193.83" cy="268.442" rx="2.47232" ry="2.55769" fill="#F2D0FA" fill-opacity="0.6"/>
<ellipse cx="179.491" cy="268.442" rx="2.47232" ry="2.55769" fill="#F2D0FA" fill-opacity="0.6"/>
<ellipse cx="165.151" cy="268.442" rx="2.47232" ry="2.55769" fill="#F2D0FA" fill-opacity="0.6"/>
<ellipse cx="150.812" cy="268.442" rx="2.47232" ry="2.55769" fill="#F2D0FA" fill-opacity="0.6"/>
<ellipse cx="136.472" cy="255.654" rx="2.47232" ry="2.55769" fill="#F2D0FA" fill-opacity="0.6"/>
<ellipse cx="265.528" cy="255.654" rx="2.47232" ry="2.55769" fill="#F2D0FA" fill-opacity="0.6"/>
<ellipse cx="251.188" cy="255.654" rx="2.47232" ry="2.55769" fill="#F2D0FA" fill-opacity="0.6"/>
<ellipse cx="236.849" cy="255.654" rx="2.47232" ry="2.55769" fill="#F2D0FA" fill-opacity="0.6"/>
<ellipse cx="222.509" cy="255.654" rx="2.47232" ry="2.55769" fill="#F2D0FA" fill-opacity="0.6"/>
<ellipse cx="208.17" cy="255.654" rx="2.47232" ry="2.55769" fill="#F2D0FA" fill-opacity="0.6"/>
<ellipse cx="193.83" cy="255.654" rx="2.47232" ry="2.55769" fill="#F2D0FA" fill-opacity="0.6"/>
<ellipse cx="179.491" cy="255.654" rx="2.47232" ry="2.55769" fill="#F2D0FA" fill-opacity="0.6"/>
<ellipse cx="165.151" cy="255.654" rx="2.47232" ry="2.55769" fill="#F2D0FA" fill-opacity="0.6"/>
<ellipse cx="150.812" cy="255.654" rx="2.47232" ry="2.55769" fill="#F2D0FA" fill-opacity="0.6"/>
<ellipse cx="136.472" cy="242.865" rx="2.47232" ry="2.55769" fill="#F2D0FA" fill-opacity="0.6"/>
<ellipse cx="265.528" cy="242.865" rx="2.47232" ry="2.55769" fill="#F2D0FA" fill-opacity="0.6"/>
<ellipse cx="251.188" cy="242.865" rx="2.47232" ry="2.55769" fill="#F2D0FA" fill-opacity="0.6"/>
<ellipse cx="236.849" cy="242.865" rx="2.47232" ry="2.55769" fill="#F2D0FA" fill-opacity="0.6"/>
<ellipse cx="222.509" cy="242.865" rx="2.47232" ry="2.55769" fill="#F2D0FA" fill-opacity="0.6"/>
<ellipse cx="208.17" cy="242.865" rx="2.47232" ry="2.55769" fill="#F2D0FA" fill-opacity="0.6"/>
<ellipse cx="193.83" cy="242.865" rx="2.47232" ry="2.55769" fill="#F2D0FA" fill-opacity="0.6"/>
<ellipse cx="179.491" cy="242.865" rx="2.47232" ry="2.55769" fill="#F2D0FA" fill-opacity="0.6"/>
<ellipse cx="165.151" cy="242.865" rx="2.47232" ry="2.55769" fill="#F2D0FA" fill-opacity="0.6"/>
<ellipse cx="150.812" cy="242.865" rx="2.47232" ry="2.55769" fill="#F2D0FA" fill-opacity="0.6"/>
<ellipse cx="136.472" cy="230.077" rx="2.47232" ry="2.55769" fill="#F2D0FA" fill-opacity="0.6"/>
<ellipse cx="265.528" cy="230.077" rx="2.47232" ry="2.55769" fill="#F2D0FA" fill-opacity="0.6"/>
<ellipse cx="251.188" cy="230.077" rx="2.47232" ry="2.55769" fill="#F2D0FA" fill-opacity="0.6"/>
<ellipse cx="236.849" cy="230.077" rx="2.47232" ry="2.55769" fill="#F2D0FA" fill-opacity="0.6"/>
<ellipse cx="222.509" cy="230.077" rx="2.47232" ry="2.55769" fill="#F2D0FA" fill-opacity="0.6"/>
<ellipse cx="208.17" cy="230.077" rx="2.47232" ry="2.55769" fill="#F2D0FA" fill-opacity="0.6"/>
<ellipse cx="193.83" cy="230.077" rx="2.47232" ry="2.55769" fill="#F2D0FA" fill-opacity="0.6"/>
<ellipse cx="179.491" cy="230.077" rx="2.47232" ry="2.55769" fill="#F2D0FA" fill-opacity="0.6"/>
<ellipse cx="165.151" cy="230.077" rx="2.47232" ry="2.55769" fill="#F2D0FA" fill-opacity="0.6"/>
<ellipse cx="150.812" cy="230.077" rx="2.47232" ry="2.55769" fill="#F2D0FA" fill-opacity="0.6"/>
<ellipse cx="136.472" cy="217.288" rx="2.47232" ry="2.55769" fill="#F2D0FA" fill-opacity="0.6"/>
<ellipse cx="265.528" cy="217.288" rx="2.47232" ry="2.55769" fill="#F2D0FA" fill-opacity="0.6"/>
<ellipse cx="251.188" cy="217.288" rx="2.47232" ry="2.55769" fill="#F2D0FA" fill-opacity="0.6"/>
<ellipse cx="236.849" cy="217.288" rx="2.47232" ry="2.55769" fill="#F2D0FA" fill-opacity="0.6"/>
<ellipse cx="222.509" cy="217.288" rx="2.47232" ry="2.55769" fill="#F2D0FA" fill-opacity="0.6"/>
<ellipse cx="208.17" cy="217.288" rx="2.47232" ry="2.55769" fill="#F2D0FA" fill-opacity="0.6"/>
<ellipse cx="193.83" cy="217.288" rx="2.47232" ry="2.55769" fill="#F2D0FA" fill-opacity="0.6"/>
<ellipse cx="179.491" cy="217.288" rx="2.47232" ry="2.55769" fill="#F2D0FA" fill-opacity="0.6"/>
<ellipse cx="165.151" cy="217.288" rx="2.47232" ry="2.55769" fill="#F2D0FA" fill-opacity="0.6"/>
<ellipse cx="150.812" cy="217.288" rx="2.47232" ry="2.55769" fill="#F2D0FA" fill-opacity="0.6"/>
<ellipse cx="136.472" cy="204.5" rx="2.47232" ry="2.55769" fill="#F2D0FA" fill-opacity="0.6"/>
<ellipse cx="265.528" cy="204.5" rx="2.47232" ry="2.55769" fill="#F2D0FA" fill-opacity="0.6"/>
<ellipse cx="251.188" cy="204.5" rx="2.47232" ry="2.55769" fill="#F2D0FA" fill-opacity="0.6"/>
<ellipse cx="236.849" cy="204.5" rx="2.47232" ry="2.55769" fill="#F2D0FA" fill-opacity="0.6"/>
<ellipse cx="222.509" cy="204.5" rx="2.47232" ry="2.55769" fill="#F2D0FA" fill-opacity="0.6"/>
<ellipse cx="208.17" cy="204.5" rx="2.47232" ry="2.55769" fill="#F2D0FA" fill-opacity="0.6"/>
<ellipse cx="193.83" cy="204.5" rx="2.47232" ry="2.55769" fill="#F2D0FA" fill-opacity="0.6"/>
<ellipse cx="179.491" cy="204.5" rx="2.47232" ry="2.55769" fill="#F2D0FA" fill-opacity="0.6"/>
<ellipse cx="165.151" cy="204.5" rx="2.47232" ry="2.55769" fill="#F2D0FA" fill-opacity="0.6"/>
<ellipse cx="150.812" cy="204.5" rx="2.47232" ry="2.55769" fill="#F2D0FA" fill-opacity="0.6"/>
<ellipse cx="136.472" cy="191.712" rx="2.47232" ry="2.55769" fill="#F2D0FA" fill-opacity="0.6"/>
<ellipse cx="265.528" cy="191.712" rx="2.47232" ry="2.55769" fill="#F2D0FA" fill-opacity="0.6"/>
<ellipse cx="251.188" cy="191.712" rx="2.47232" ry="2.55769" fill="#F2D0FA" fill-opacity="0.6"/>
<ellipse cx="236.849" cy="191.712" rx="2.47232" ry="2.55769" fill="#F2D0FA" fill-opacity="0.6"/>
<ellipse cx="222.509" cy="191.712" rx="2.47232" ry="2.55769" fill="#F2D0FA" fill-opacity="0.6"/>
<ellipse cx="208.17" cy="191.712" rx="2.47232" ry="2.55769" fill="#F2D0FA" fill-opacity="0.6"/>
<ellipse cx="193.83" cy="191.712" rx="2.47232" ry="2.55769" fill="#F2D0FA" fill-opacity="0.6"/>
<ellipse cx="179.491" cy="191.712" rx="2.47232" ry="2.55769" fill="#F2D0FA" fill-opacity="0.6"/>
<ellipse cx="165.151" cy="191.712" rx="2.47232" ry="2.55769" fill="#F2D0FA" fill-opacity="0.6"/>
<ellipse cx="150.812" cy="191.712" rx="2.47232" ry="2.55769" fill="#F2D0FA" fill-opacity="0.6"/>
<ellipse cx="136.472" cy="178.923" rx="2.47232" ry="2.55769" fill="#F2D0FA" fill-opacity="0.6"/>
<ellipse cx="265.528" cy="178.923" rx="2.47232" ry="2.55769" fill="#F2D0FA" fill-opacity="0.6"/>
<ellipse cx="251.188" cy="178.923" rx="2.47232" ry="2.55769" fill="#F2D0FA" fill-opacity="0.6"/>
<ellipse cx="236.849" cy="178.923" rx="2.47232" ry="2.55769" fill="#F2D0FA" fill-opacity="0.6"/>
<ellipse cx="222.509" cy="178.923" rx="2.47232" ry="2.55769" fill="#F2D0FA" fill-opacity="0.6"/>
<ellipse cx="208.17" cy="178.923" rx="2.47232" ry="2.55769" fill="#F2D0FA" fill-opacity="0.6"/>
<ellipse cx="193.83" cy="178.923" rx="2.47232" ry="2.55769" fill="#F2D0FA" fill-opacity="0.6"/>
<ellipse cx="179.491" cy="178.923" rx="2.47232" ry="2.55769" fill="#F2D0FA" fill-opacity="0.6"/>
<ellipse cx="165.151" cy="178.923" rx="2.47232" ry="2.55769" fill="#F2D0FA" fill-opacity="0.6"/>
<ellipse cx="150.812" cy="178.923" rx="2.47232" ry="2.55769" fill="#F2D0FA" fill-opacity="0.6"/>
<ellipse cx="136.472" cy="166.135" rx="2.47232" ry="2.55769" fill="#F2D0FA" fill-opacity="0.6"/>
<ellipse cx="265.528" cy="166.135" rx="2.47232" ry="2.55769" fill="#F2D0FA" fill-opacity="0.6"/>
<ellipse cx="251.188" cy="166.135" rx="2.47232" ry="2.55769" fill="#F2D0FA" fill-opacity="0.6"/>
<ellipse cx="236.849" cy="166.135" rx="2.47232" ry="2.55769" fill="#F2D0FA" fill-opacity="0.6"/>
<ellipse cx="222.509" cy="166.135" rx="2.47232" ry="2.55769" fill="#F2D0FA" fill-opacity="0.6"/>
<ellipse cx="208.17" cy="166.135" rx="2.47232" ry="2.55769" fill="#F2D0FA" fill-opacity="0.6"/>
<ellipse cx="193.83" cy="166.135" rx="2.47232" ry="2.55769" fill="#F2D0FA" fill-opacity="0.6"/>
<ellipse cx="179.491" cy="166.135" rx="2.47232" ry="2.55769" fill="#F2D0FA" fill-opacity="0.6"/>
<ellipse cx="165.151" cy="166.135" rx="2.47232" ry="2.55769" fill="#F2D0FA" fill-opacity="0.6"/>
<ellipse cx="150.812" cy="166.135" rx="2.47232" ry="2.55769" fill="#F2D0FA" fill-opacity="0.6"/>
<ellipse cx="136.472" cy="153.346" rx="2.47232" ry="2.55769" fill="#F2D0FA" fill-opacity="0.6"/>
<ellipse cx="265.528" cy="153.346" rx="2.47232" ry="2.55769" fill="#F2D0FA" fill-opacity="0.6"/>
<ellipse cx="251.188" cy="153.346" rx="2.47232" ry="2.55769" fill="#F2D0FA" fill-opacity="0.6"/>
<ellipse cx="236.849" cy="153.346" rx="2.47232" ry="2.55769" fill="#F2D0FA" fill-opacity="0.6"/>
<ellipse cx="222.509" cy="153.346" rx="2.47232" ry="2.55769" fill="#F2D0FA" fill-opacity="0.6"/>
<ellipse cx="208.17" cy="153.346" rx="2.47232" ry="2.55769" fill="#F2D0FA" fill-opacity="0.6"/>
<ellipse cx="193.83" cy="153.346" rx="2.47232" ry="2.55769" fill="#F2D0FA" fill-opacity="0.6"/>
<ellipse cx="179.491" cy="153.346" rx="2.47232" ry="2.55769" fill="#F2D0FA" fill-opacity="0.6"/>
<ellipse cx="165.151" cy="153.346" rx="2.47232" ry="2.55769" fill="#F2D0FA" fill-opacity="0.6"/>
<ellipse cx="150.812" cy="153.346" rx="2.47232" ry="2.55769" fill="#F2D0FA" fill-opacity="0.6"/>
<ellipse cx="2.47232" cy="275.558" rx="2.47232" ry="2.55769" fill="#F2D0FA" fill-opacity="0.6"/>
<ellipse cx="131.528" cy="275.558" rx="2.47232" ry="2.55769" fill="#F2D0FA" fill-opacity="0.6"/>
<ellipse cx="117.188" cy="275.558" rx="2.47232" ry="2.55769" fill="#F2D0FA" fill-opacity="0.6"/>
<ellipse cx="102.849" cy="275.558" rx="2.47232" ry="2.55769" fill="#F2D0FA" fill-opacity="0.6"/>
<ellipse cx="88.5092" cy="275.558" rx="2.47232" ry="2.55769" fill="#F2D0FA" fill-opacity="0.6"/>
<ellipse cx="74.1697" cy="275.558" rx="2.47232" ry="2.55769" fill="#F2D0FA" fill-opacity="0.6"/>
<ellipse cx="59.8303" cy="275.558" rx="2.47232" ry="2.55769" fill="#F2D0FA" fill-opacity="0.6"/>
<ellipse cx="45.4908" cy="275.558" rx="2.47232" ry="2.55769" fill="#F2D0FA" fill-opacity="0.6"/>
<ellipse cx="31.1513" cy="275.558" rx="2.47232" ry="2.55769" fill="#F2D0FA" fill-opacity="0.6"/>
<ellipse cx="16.8118" cy="275.558" rx="2.47232" ry="2.55769" fill="#F2D0FA" fill-opacity="0.6"/>
<ellipse cx="2.47232" cy="403.442" rx="2.47232" ry="2.55769" fill="#F2D0FA" fill-opacity="0.6"/>
<ellipse cx="131.528" cy="403.442" rx="2.47232" ry="2.55769" fill="#F2D0FA" fill-opacity="0.6"/>
<ellipse cx="117.188" cy="403.442" rx="2.47232" ry="2.55769" fill="#F2D0FA" fill-opacity="0.6"/>
<ellipse cx="102.849" cy="403.442" rx="2.47232" ry="2.55769" fill="#F2D0FA" fill-opacity="0.6"/>
<ellipse cx="88.5092" cy="403.442" rx="2.47232" ry="2.55769" fill="#F2D0FA" fill-opacity="0.6"/>
<ellipse cx="74.1697" cy="403.442" rx="2.47232" ry="2.55769" fill="#F2D0FA" fill-opacity="0.6"/>
<ellipse cx="59.8303" cy="403.442" rx="2.47232" ry="2.55769" fill="#F2D0FA" fill-opacity="0.6"/>
<ellipse cx="45.4908" cy="403.442" rx="2.47232" ry="2.55769" fill="#F2D0FA" fill-opacity="0.6"/>
<ellipse cx="31.1513" cy="403.442" rx="2.47232" ry="2.55769" fill="#F2D0FA" fill-opacity="0.6"/>
<ellipse cx="16.8118" cy="403.442" rx="2.47232" ry="2.55769" fill="#F2D0FA" fill-opacity="0.6"/>
<ellipse cx="2.47232" cy="390.654" rx="2.47232" ry="2.55769" fill="#F2D0FA" fill-opacity="0.6"/>
<ellipse cx="131.528" cy="390.654" rx="2.47232" ry="2.55769" fill="#F2D0FA" fill-opacity="0.6"/>
<ellipse cx="117.188" cy="390.654" rx="2.47232" ry="2.55769" fill="#F2D0FA" fill-opacity="0.6"/>
<ellipse cx="102.849" cy="390.654" rx="2.47232" ry="2.55769" fill="#F2D0FA" fill-opacity="0.6"/>
<ellipse cx="88.5092" cy="390.654" rx="2.47232" ry="2.55769" fill="#F2D0FA" fill-opacity="0.6"/>
<ellipse cx="74.1697" cy="390.654" rx="2.47232" ry="2.55769" fill="#F2D0FA" fill-opacity="0.6"/>
<ellipse cx="59.8303" cy="390.654" rx="2.47232" ry="2.55769" fill="#F2D0FA" fill-opacity="0.6"/>
<ellipse cx="45.4908" cy="390.654" rx="2.47232" ry="2.55769" fill="#F2D0FA" fill-opacity="0.6"/>
<ellipse cx="31.1513" cy="390.654" rx="2.47232" ry="2.55769" fill="#F2D0FA" fill-opacity="0.6"/>
<ellipse cx="16.8118" cy="390.654" rx="2.47232" ry="2.55769" fill="#F2D0FA" fill-opacity="0.6"/>
<ellipse cx="2.47232" cy="377.865" rx="2.47232" ry="2.55769" fill="#F2D0FA" fill-opacity="0.6"/>
<ellipse cx="131.528" cy="377.865" rx="2.47232" ry="2.55769" fill="#F2D0FA" fill-opacity="0.6"/>
<ellipse cx="117.188" cy="377.865" rx="2.47232" ry="2.55769" fill="#F2D0FA" fill-opacity="0.6"/>
<ellipse cx="102.849" cy="377.865" rx="2.47232" ry="2.55769" fill="#F2D0FA" fill-opacity="0.6"/>
<ellipse cx="88.5092" cy="377.865" rx="2.47232" ry="2.55769" fill="#F2D0FA" fill-opacity="0.6"/>
<ellipse cx="74.1697" cy="377.865" rx="2.47232" ry="2.55769" fill="#F2D0FA" fill-opacity="0.6"/>
<ellipse cx="59.8303" cy="377.865" rx="2.47232" ry="2.55769" fill="#F2D0FA" fill-opacity="0.6"/>
<ellipse cx="45.4908" cy="377.865" rx="2.47232" ry="2.55769" fill="#F2D0FA" fill-opacity="0.6"/>
<ellipse cx="31.1513" cy="377.865" rx="2.47232" ry="2.55769" fill="#F2D0FA" fill-opacity="0.6"/>
<ellipse cx="16.8118" cy="377.865" rx="2.47232" ry="2.55769" fill="#F2D0FA" fill-opacity="0.6"/>
<ellipse cx="2.47232" cy="365.077" rx="2.47232" ry="2.55769" fill="#F2D0FA" fill-opacity="0.6"/>
<ellipse cx="131.528" cy="365.077" rx="2.47232" ry="2.55769" fill="#F2D0FA" fill-opacity="0.6"/>
<ellipse cx="117.188" cy="365.077" rx="2.47232" ry="2.55769" fill="#F2D0FA" fill-opacity="0.6"/>
<ellipse cx="102.849" cy="365.077" rx="2.47232" ry="2.55769" fill="#F2D0FA" fill-opacity="0.6"/>
<ellipse cx="88.5092" cy="365.077" rx="2.47232" ry="2.55769" fill="#F2D0FA" fill-opacity="0.6"/>
<ellipse cx="74.1697" cy="365.077" rx="2.47232" ry="2.55769" fill="#F2D0FA" fill-opacity="0.6"/>
<ellipse cx="59.8303" cy="365.077" rx="2.47232" ry="2.55769" fill="#F2D0FA" fill-opacity="0.6"/>
<ellipse cx="45.4908" cy="365.077" rx="2.47232" ry="2.55769" fill="#F2D0FA" fill-opacity="0.6"/>
<ellipse cx="31.1513" cy="365.077" rx="2.47232" ry="2.55769" fill="#F2D0FA" fill-opacity="0.6"/>
<ellipse cx="16.8118" cy="365.077" rx="2.47232" ry="2.55769" fill="#F2D0FA" fill-opacity="0.6"/>
<ellipse cx="2.47232" cy="352.288" rx="2.47232" ry="2.55769" fill="#F2D0FA" fill-opacity="0.6"/>
<ellipse cx="131.528" cy="352.288" rx="2.47232" ry="2.55769" fill="#F2D0FA" fill-opacity="0.6"/>
<ellipse cx="117.188" cy="352.288" rx="2.47232" ry="2.55769" fill="#F2D0FA" fill-opacity="0.6"/>
<ellipse cx="102.849" cy="352.288" rx="2.47232" ry="2.55769" fill="#F2D0FA" fill-opacity="0.6"/>
<ellipse cx="88.5092" cy="352.288" rx="2.47232" ry="2.55769" fill="#F2D0FA" fill-opacity="0.6"/>
<ellipse cx="74.1697" cy="352.288" rx="2.47232" ry="2.55769" fill="#F2D0FA" fill-opacity="0.6"/>
<ellipse cx="59.8303" cy="352.288" rx="2.47232" ry="2.55769" fill="#F2D0FA" fill-opacity="0.6"/>
<ellipse cx="45.4908" cy="352.288" rx="2.47232" ry="2.55769" fill="#F2D0FA" fill-opacity="0.6"/>
<ellipse cx="31.1513" cy="352.288" rx="2.47232" ry="2.55769" fill="#F2D0FA" fill-opacity="0.6"/>
<ellipse cx="16.8118" cy="352.288" rx="2.47232" ry="2.55769" fill="#F2D0FA" fill-opacity="0.6"/>
<ellipse cx="2.47232" cy="339.5" rx="2.47232" ry="2.55769" fill="#F2D0FA" fill-opacity="0.6"/>
<ellipse cx="131.528" cy="339.5" rx="2.47232" ry="2.55769" fill="#F2D0FA" fill-opacity="0.6"/>
<ellipse cx="117.188" cy="339.5" rx="2.47232" ry="2.55769" fill="#F2D0FA" fill-opacity="0.6"/>
<ellipse cx="102.849" cy="339.5" rx="2.47232" ry="2.55769" fill="#F2D0FA" fill-opacity="0.6"/>
<ellipse cx="88.5092" cy="339.5" rx="2.47232" ry="2.55769" fill="#F2D0FA" fill-opacity="0.6"/>
<ellipse cx="74.1697" cy="339.5" rx="2.47232" ry="2.55769" fill="#F2D0FA" fill-opacity="0.6"/>
<ellipse cx="59.8303" cy="339.5" rx="2.47232" ry="2.55769" fill="#F2D0FA" fill-opacity="0.6"/>
<ellipse cx="45.4908" cy="339.5" rx="2.47232" ry="2.55769" fill="#F2D0FA" fill-opacity="0.6"/>
<ellipse cx="31.1513" cy="339.5" rx="2.47232" ry="2.55769" fill="#F2D0FA" fill-opacity="0.6"/>
<ellipse cx="16.8118" cy="339.5" rx="2.47232" ry="2.55769" fill="#F2D0FA" fill-opacity="0.6"/>
<ellipse cx="2.47232" cy="326.712" rx="2.47232" ry="2.55769" fill="#F2D0FA" fill-opacity="0.6"/>
<ellipse cx="131.528" cy="326.712" rx="2.47232" ry="2.55769" fill="#F2D0FA" fill-opacity="0.6"/>
<ellipse cx="117.188" cy="326.712" rx="2.47232" ry="2.55769" fill="#F2D0FA" fill-opacity="0.6"/>
<ellipse cx="102.849" cy="326.712" rx="2.47232" ry="2.55769" fill="#F2D0FA" fill-opacity="0.6"/>
<ellipse cx="88.5092" cy="326.712" rx="2.47232" ry="2.55769" fill="#F2D0FA" fill-opacity="0.6"/>
<ellipse cx="74.1697" cy="326.712" rx="2.47232" ry="2.55769" fill="#F2D0FA" fill-opacity="0.6"/>
<ellipse cx="59.8303" cy="326.712" rx="2.47232" ry="2.55769" fill="#F2D0FA" fill-opacity="0.6"/>
<ellipse cx="45.4908" cy="326.712" rx="2.47232" ry="2.55769" fill="#F2D0FA" fill-opacity="0.6"/>
<ellipse cx="31.1513" cy="326.712" rx="2.47232" ry="2.55769" fill="#F2D0FA" fill-opacity="0.6"/>
<ellipse cx="16.8118" cy="326.712" rx="2.47232" ry="2.55769" fill="#F2D0FA" fill-opacity="0.6"/>
<ellipse cx="2.47232" cy="313.923" rx="2.47232" ry="2.55769" fill="#F2D0FA" fill-opacity="0.6"/>
<ellipse cx="131.528" cy="313.923" rx="2.47232" ry="2.55769" fill="#F2D0FA" fill-opacity="0.6"/>
<ellipse cx="117.188" cy="313.923" rx="2.47232" ry="2.55769" fill="#F2D0FA" fill-opacity="0.6"/>
<ellipse cx="102.849" cy="313.923" rx="2.47232" ry="2.55769" fill="#F2D0FA" fill-opacity="0.6"/>
<ellipse cx="88.5092" cy="313.923" rx="2.47232" ry="2.55769" fill="#F2D0FA" fill-opacity="0.6"/>
<ellipse cx="74.1697" cy="313.923" rx="2.47232" ry="2.55769" fill="#F2D0FA" fill-opacity="0.6"/>
<ellipse cx="59.8303" cy="313.923" rx="2.47232" ry="2.55769" fill="#F2D0FA" fill-opacity="0.6"/>
<ellipse cx="45.4908" cy="313.923" rx="2.47232" ry="2.55769" fill="#F2D0FA" fill-opacity="0.6"/>
<ellipse cx="31.1513" cy="313.923" rx="2.47232" ry="2.55769" fill="#F2D0FA" fill-opacity="0.6"/>
<ellipse cx="16.8118" cy="313.923" rx="2.47232" ry="2.55769" fill="#F2D0FA" fill-opacity="0.6"/>
<ellipse cx="2.47232" cy="301.135" rx="2.47232" ry="2.55769" fill="#F2D0FA" fill-opacity="0.6"/>
<ellipse cx="131.528" cy="301.135" rx="2.47232" ry="2.55769" fill="#F2D0FA" fill-opacity="0.6"/>
<ellipse cx="117.188" cy="301.135" rx="2.47232" ry="2.55769" fill="#F2D0FA" fill-opacity="0.6"/>
<ellipse cx="102.849" cy="301.135" rx="2.47232" ry="2.55769" fill="#F2D0FA" fill-opacity="0.6"/>
<ellipse cx="88.5092" cy="301.135" rx="2.47232" ry="2.55769" fill="#F2D0FA" fill-opacity="0.6"/>
<ellipse cx="74.1697" cy="301.135" rx="2.47232" ry="2.55769" fill="#F2D0FA" fill-opacity="0.6"/>
<ellipse cx="59.8303" cy="301.135" rx="2.47232" ry="2.55769" fill="#F2D0FA" fill-opacity="0.6"/>
<ellipse cx="45.4908" cy="301.135" rx="2.47232" ry="2.55769" fill="#F2D0FA" fill-opacity="0.6"/>
<ellipse cx="31.1513" cy="301.135" rx="2.47232" ry="2.55769" fill="#F2D0FA" fill-opacity="0.6"/>
<ellipse cx="16.8118" cy="301.135" rx="2.47232" ry="2.55769" fill="#F2D0FA" fill-opacity="0.6"/>
<ellipse cx="2.47232" cy="288.346" rx="2.47232" ry="2.55769" fill="#F2D0FA" fill-opacity="0.6"/>
<ellipse cx="131.528" cy="288.346" rx="2.47232" ry="2.55769" fill="#F2D0FA" fill-opacity="0.6"/>
<ellipse cx="117.188" cy="288.346" rx="2.47232" ry="2.55769" fill="#F2D0FA" fill-opacity="0.6"/>
<ellipse cx="102.849" cy="288.346" rx="2.47232" ry="2.55769" fill="#F2D0FA" fill-opacity="0.6"/>
<ellipse cx="88.5092" cy="288.346" rx="2.47232" ry="2.55769" fill="#F2D0FA" fill-opacity="0.6"/>
<ellipse cx="74.1697" cy="288.346" rx="2.47232" ry="2.55769" fill="#F2D0FA" fill-opacity="0.6"/>
<ellipse cx="59.8303" cy="288.346" rx="2.47232" ry="2.55769" fill="#F2D0FA" fill-opacity="0.6"/>
<ellipse cx="45.4908" cy="288.346" rx="2.47232" ry="2.55769" fill="#F2D0FA" fill-opacity="0.6"/>
<ellipse cx="31.1513" cy="288.346" rx="2.47232" ry="2.55769" fill="#F2D0FA" fill-opacity="0.6"/>
<ellipse cx="16.8118" cy="288.346" rx="2.47232" ry="2.55769" fill="#F2D0FA" fill-opacity="0.6"/>
<ellipse cx="2.47232" cy="6.55769" rx="2.47232" ry="2.55769" fill="#F2D0FA" fill-opacity="0.6"/>
<ellipse cx="131.528" cy="6.55769" rx="2.47232" ry="2.55769" fill="#F2D0FA" fill-opacity="0.6"/>
<ellipse cx="117.188" cy="6.55769" rx="2.47232" ry="2.55769" fill="#F2D0FA" fill-opacity="0.6"/>
<ellipse cx="102.849" cy="6.55769" rx="2.47232" ry="2.55769" fill="#F2D0FA" fill-opacity="0.6"/>
<ellipse cx="88.5092" cy="6.55769" rx="2.47232" ry="2.55769" fill="#F2D0FA" fill-opacity="0.6"/>
<ellipse cx="74.1697" cy="6.55769" rx="2.47232" ry="2.55769" fill="#F2D0FA" fill-opacity="0.6"/>
<ellipse cx="59.8303" cy="6.55769" rx="2.47232" ry="2.55769" fill="#F2D0FA" fill-opacity="0.6"/>
<ellipse cx="45.4908" cy="6.55769" rx="2.47232" ry="2.55769" fill="#F2D0FA" fill-opacity="0.6"/>
<ellipse cx="31.1513" cy="6.55769" rx="2.47232" ry="2.55769" fill="#F2D0FA" fill-opacity="0.6"/>
<ellipse cx="16.8118" cy="6.55769" rx="2.47232" ry="2.55769" fill="#F2D0FA" fill-opacity="0.6"/>
<ellipse cx="2.47232" cy="134.442" rx="2.47232" ry="2.55769" fill="#F2D0FA" fill-opacity="0.6"/>
<ellipse cx="131.528" cy="134.442" rx="2.47232" ry="2.55769" fill="#F2D0FA" fill-opacity="0.6"/>
<ellipse cx="117.188" cy="134.442" rx="2.47232" ry="2.55769" fill="#F2D0FA" fill-opacity="0.6"/>
<ellipse cx="102.849" cy="134.442" rx="2.47232" ry="2.55769" fill="#F2D0FA" fill-opacity="0.6"/>
<ellipse cx="88.5092" cy="134.442" rx="2.47232" ry="2.55769" fill="#F2D0FA" fill-opacity="0.6"/>
<ellipse cx="74.1697" cy="134.442" rx="2.47232" ry="2.55769" fill="#F2D0FA" fill-opacity="0.6"/>
<ellipse cx="59.8303" cy="134.442" rx="2.47232" ry="2.55769" fill="#F2D0FA" fill-opacity="0.6"/>
<ellipse cx="45.4908" cy="134.442" rx="2.47232" ry="2.55769" fill="#F2D0FA" fill-opacity="0.6"/>
<ellipse cx="31.1513" cy="134.442" rx="2.47232" ry="2.55769" fill="#F2D0FA" fill-opacity="0.6"/>
<ellipse cx="16.8118" cy="134.442" rx="2.47232" ry="2.55769" fill="#F2D0FA" fill-opacity="0.6"/>
<ellipse cx="2.47232" cy="121.654" rx="2.47232" ry="2.55769" fill="#F2D0FA" fill-opacity="0.6"/>
<ellipse cx="131.528" cy="121.654" rx="2.47232" ry="2.55769" fill="#F2D0FA" fill-opacity="0.6"/>
<ellipse cx="117.188" cy="121.654" rx="2.47232" ry="2.55769" fill="#F2D0FA" fill-opacity="0.6"/>
<ellipse cx="102.849" cy="121.654" rx="2.47232" ry="2.55769" fill="#F2D0FA" fill-opacity="0.6"/>
<ellipse cx="88.5092" cy="121.654" rx="2.47232" ry="2.55769" fill="#F2D0FA" fill-opacity="0.6"/>
<ellipse cx="74.1697" cy="121.654" rx="2.47232" ry="2.55769" fill="#F2D0FA" fill-opacity="0.6"/>
<ellipse cx="59.8303" cy="121.654" rx="2.47232" ry="2.55769" fill="#F2D0FA" fill-opacity="0.6"/>
<ellipse cx="45.4908" cy="121.654" rx="2.47232" ry="2.55769" fill="#F2D0FA" fill-opacity="0.6"/>
<ellipse cx="31.1513" cy="121.654" rx="2.47232" ry="2.55769" fill="#F2D0FA" fill-opacity="0.6"/>
<ellipse cx="16.8118" cy="121.654" rx="2.47232" ry="2.55769" fill="#F2D0FA" fill-opacity="0.6"/>
<ellipse cx="2.47232" cy="108.865" rx="2.47232" ry="2.55769" fill="#F2D0FA" fill-opacity="0.6"/>
<ellipse cx="131.528" cy="108.865" rx="2.47232" ry="2.55769" fill="#F2D0FA" fill-opacity="0.6"/>
<ellipse cx="117.188" cy="108.865" rx="2.47232" ry="2.55769" fill="#F2D0FA" fill-opacity="0.6"/>
<ellipse cx="102.849" cy="108.865" rx="2.47232" ry="2.55769" fill="#F2D0FA" fill-opacity="0.6"/>
<ellipse cx="88.5092" cy="108.865" rx="2.47232" ry="2.55769" fill="#F2D0FA" fill-opacity="0.6"/>
<ellipse cx="74.1697" cy="108.865" rx="2.47232" ry="2.55769" fill="#F2D0FA" fill-opacity="0.6"/>
<ellipse cx="59.8303" cy="108.865" rx="2.47232" ry="2.55769" fill="#F2D0FA" fill-opacity="0.6"/>
<ellipse cx="45.4908" cy="108.865" rx="2.47232" ry="2.55769" fill="#F2D0FA" fill-opacity="0.6"/>
<ellipse cx="31.1513" cy="108.865" rx="2.47232" ry="2.55769" fill="#F2D0FA" fill-opacity="0.6"/>
<ellipse cx="16.8118" cy="108.865" rx="2.47232" ry="2.55769" fill="#F2D0FA" fill-opacity="0.6"/>
<ellipse cx="2.47232" cy="96.0769" rx="2.47232" ry="2.55769" fill="#F2D0FA" fill-opacity="0.6"/>
<ellipse cx="131.528" cy="96.0769" rx="2.47232" ry="2.55769" fill="#F2D0FA" fill-opacity="0.6"/>
<ellipse cx="117.188" cy="96.0769" rx="2.47232" ry="2.55769" fill="#F2D0FA" fill-opacity="0.6"/>
<ellipse cx="102.849" cy="96.0769" rx="2.47232" ry="2.55769" fill="#F2D0FA" fill-opacity="0.6"/>
<ellipse cx="88.5092" cy="96.0769" rx="2.47232" ry="2.55769" fill="#F2D0FA" fill-opacity="0.6"/>
<ellipse cx="74.1697" cy="96.0769" rx="2.47232" ry="2.55769" fill="#F2D0FA" fill-opacity="0.6"/>
<ellipse cx="59.8303" cy="96.0769" rx="2.47232" ry="2.55769" fill="#F2D0FA" fill-opacity="0.6"/>
<ellipse cx="45.4908" cy="96.0769" rx="2.47232" ry="2.55769" fill="#F2D0FA" fill-opacity="0.6"/>
<ellipse cx="31.1513" cy="96.0769" rx="2.47232" ry="2.55769" fill="#F2D0FA" fill-opacity="0.6"/>
<ellipse cx="16.8118" cy="96.0769" rx="2.47232" ry="2.55769" fill="#F2D0FA" fill-opacity="0.6"/>
<ellipse cx="2.47232" cy="83.2885" rx="2.47232" ry="2.55769" fill="#F2D0FA" fill-opacity="0.6"/>
<ellipse cx="131.528" cy="83.2885" rx="2.47232" ry="2.55769" fill="#F2D0FA" fill-opacity="0.6"/>
<ellipse cx="117.188" cy="83.2885" rx="2.47232" ry="2.55769" fill="#F2D0FA" fill-opacity="0.6"/>
<ellipse cx="102.849" cy="83.2885" rx="2.47232" ry="2.55769" fill="#F2D0FA" fill-opacity="0.6"/>
<ellipse cx="88.5092" cy="83.2885" rx="2.47232" ry="2.55769" fill="#F2D0FA" fill-opacity="0.6"/>
<ellipse cx="74.1697" cy="83.2885" rx="2.47232" ry="2.55769" fill="#F2D0FA" fill-opacity="0.6"/>
<ellipse cx="59.8303" cy="83.2885" rx="2.47232" ry="2.55769" fill="#F2D0FA" fill-opacity="0.6"/>
<ellipse cx="45.4908" cy="83.2885" rx="2.47232" ry="2.55769" fill="#F2D0FA" fill-opacity="0.6"/>
<ellipse cx="31.1513" cy="83.2885" rx="2.47232" ry="2.55769" fill="#F2D0FA" fill-opacity="0.6"/>
<ellipse cx="16.8118" cy="83.2885" rx="2.47232" ry="2.55769" fill="#F2D0FA" fill-opacity="0.6"/>
<ellipse cx="2.47232" cy="70.5" rx="2.47232" ry="2.55769" fill="#F2D0FA" fill-opacity="0.6"/>
<ellipse cx="131.528" cy="70.5" rx="2.47232" ry="2.55769" fill="#F2D0FA" fill-opacity="0.6"/>
<ellipse cx="117.188" cy="70.5" rx="2.47232" ry="2.55769" fill="#F2D0FA" fill-opacity="0.6"/>
<ellipse cx="102.849" cy="70.5" rx="2.47232" ry="2.55769" fill="#F2D0FA" fill-opacity="0.6"/>
<ellipse cx="88.5092" cy="70.5" rx="2.47232" ry="2.55769" fill="#F2D0FA" fill-opacity="0.6"/>
<ellipse cx="74.1697" cy="70.5" rx="2.47232" ry="2.55769" fill="#F2D0FA" fill-opacity="0.6"/>
<ellipse cx="59.8303" cy="70.5" rx="2.47232" ry="2.55769" fill="#F2D0FA" fill-opacity="0.6"/>
<ellipse cx="45.4908" cy="70.5" rx="2.47232" ry="2.55769" fill="#F2D0FA" fill-opacity="0.6"/>
<ellipse cx="31.1513" cy="70.5" rx="2.47232" ry="2.55769" fill="#F2D0FA" fill-opacity="0.6"/>
<ellipse cx="16.8118" cy="70.5" rx="2.47232" ry="2.55769" fill="#F2D0FA" fill-opacity="0.6"/>
<ellipse cx="2.47232" cy="57.7115" rx="2.47232" ry="2.55769" fill="#F2D0FA" fill-opacity="0.6"/>
<ellipse cx="131.528" cy="57.7116" rx="2.47232" ry="2.55769" fill="#F2D0FA" fill-opacity="0.6"/>
<ellipse cx="117.188" cy="57.7116" rx="2.47232" ry="2.55769" fill="#F2D0FA" fill-opacity="0.6"/>
<ellipse cx="102.849" cy="57.7116" rx="2.47232" ry="2.55769" fill="#F2D0FA" fill-opacity="0.6"/>
<ellipse cx="88.5092" cy="57.7116" rx="2.47232" ry="2.55769" fill="#F2D0FA" fill-opacity="0.6"/>
<ellipse cx="74.1697" cy="57.7116" rx="2.47232" ry="2.55769" fill="#F2D0FA" fill-opacity="0.6"/>
<ellipse cx="59.8303" cy="57.7116" rx="2.47232" ry="2.55769" fill="#F2D0FA" fill-opacity="0.6"/>
<ellipse cx="45.4908" cy="57.7116" rx="2.47232" ry="2.55769" fill="#F2D0FA" fill-opacity="0.6"/>
<ellipse cx="31.1513" cy="57.7116" rx="2.47232" ry="2.55769" fill="#F2D0FA" fill-opacity="0.6"/>
<ellipse cx="16.8118" cy="57.7116" rx="2.47232" ry="2.55769" fill="#F2D0FA" fill-opacity="0.6"/>
<ellipse cx="2.47232" cy="44.9231" rx="2.47232" ry="2.55769" fill="#F2D0FA" fill-opacity="0.6"/>
<ellipse cx="131.528" cy="44.923" rx="2.47232" ry="2.55769" fill="#F2D0FA" fill-opacity="0.6"/>
<ellipse cx="117.188" cy="44.923" rx="2.47232" ry="2.55769" fill="#F2D0FA" fill-opacity="0.6"/>
<ellipse cx="102.849" cy="44.923" rx="2.47232" ry="2.55769" fill="#F2D0FA" fill-opacity="0.6"/>
<ellipse cx="88.5092" cy="44.923" rx="2.47232" ry="2.55769" fill="#F2D0FA" fill-opacity="0.6"/>
<ellipse cx="74.1697" cy="44.923" rx="2.47232" ry="2.55769" fill="#F2D0FA" fill-opacity="0.6"/>
<ellipse cx="59.8303" cy="44.923" rx="2.47232" ry="2.55769" fill="#F2D0FA" fill-opacity="0.6"/>
<ellipse cx="45.4908" cy="44.923" rx="2.47232" ry="2.55769" fill="#F2D0FA" fill-opacity="0.6"/>
<ellipse cx="31.1513" cy="44.923" rx="2.47232" ry="2.55769" fill="#F2D0FA" fill-opacity="0.6"/>
<ellipse cx="16.8118" cy="44.923" rx="2.47232" ry="2.55769" fill="#F2D0FA" fill-opacity="0.6"/>
<ellipse cx="2.47232" cy="32.1346" rx="2.47232" ry="2.55769" fill="#F2D0FA" fill-opacity="0.6"/>
<ellipse cx="131.528" cy="32.1346" rx="2.47232" ry="2.55769" fill="#F2D0FA" fill-opacity="0.6"/>
<ellipse cx="117.188" cy="32.1346" rx="2.47232" ry="2.55769" fill="#F2D0FA" fill-opacity="0.6"/>
<ellipse cx="102.849" cy="32.1346" rx="2.47232" ry="2.55769" fill="#F2D0FA" fill-opacity="0.6"/>
<ellipse cx="88.5092" cy="32.1346" rx="2.47232" ry="2.55769" fill="#F2D0FA" fill-opacity="0.6"/>
<ellipse cx="74.1697" cy="32.1346" rx="2.47232" ry="2.55769" fill="#F2D0FA" fill-opacity="0.6"/>
<ellipse cx="59.8303" cy="32.1346" rx="2.47232" ry="2.55769" fill="#F2D0FA" fill-opacity="0.6"/>
<ellipse cx="45.4908" cy="32.1346" rx="2.47232" ry="2.55769" fill="#F2D0FA" fill-opacity="0.6"/>
<ellipse cx="31.1513" cy="32.1346" rx="2.47232" ry="2.55769" fill="#F2D0FA" fill-opacity="0.6"/>
<ellipse cx="16.8118" cy="32.1346" rx="2.47232" ry="2.55769" fill="#F2D0FA" fill-opacity="0.6"/>
<ellipse cx="2.47232" cy="19.3462" rx="2.47232" ry="2.55769" fill="#F2D0FA" fill-opacity="0.6"/>
<ellipse cx="131.528" cy="19.3462" rx="2.47232" ry="2.55769" fill="#F2D0FA" fill-opacity="0.6"/>
<ellipse cx="117.188" cy="19.3462" rx="2.47232" ry="2.55769" fill="#F2D0FA" fill-opacity="0.6"/>
<ellipse cx="102.849" cy="19.3462" rx="2.47232" ry="2.55769" fill="#F2D0FA" fill-opacity="0.6"/>
<ellipse cx="88.5092" cy="19.3462" rx="2.47232" ry="2.55769" fill="#F2D0FA" fill-opacity="0.6"/>
<ellipse cx="74.1697" cy="19.3462" rx="2.47232" ry="2.55769" fill="#F2D0FA" fill-opacity="0.6"/>
<ellipse cx="59.8303" cy="19.3462" rx="2.47232" ry="2.55769" fill="#F2D0FA" fill-opacity="0.6"/>
<ellipse cx="45.4908" cy="19.3462" rx="2.47232" ry="2.55769" fill="#F2D0FA" fill-opacity="0.6"/>
<ellipse cx="31.1513" cy="19.3462" rx="2.47232" ry="2.55769" fill="#F2D0FA" fill-opacity="0.6"/>
<ellipse cx="16.8118" cy="19.3462" rx="2.47232" ry="2.55769" fill="#F2D0FA" fill-opacity="0.6"/>
</svg>
